<svg xmlns="http://www.w3.org/2000/svg" width="225.458" height="118.111" viewBox="0 0 225.458 118.111">
  <g id="Group_46" data-name="Group 46" transform="translate(-126.281 -242.833)">
    <path id="Path_15315" data-name="Path 15315" d="M235.531,249.652l-3.99,3.091-23.335,18.052,3.1,4,23.325-18.056,5.123,6.621,3.1,3.993,4-3.091,11.589-8.977,3.235,4.172,4.371-8.32,4.36-8.306-9.136,2.144-9.146,2.139,3.22,4.167-11.589,8.983-5.124-6.617-3.1-4" transform="translate(-7.61)" fill="#00c39e" fill-rule="evenodd"/>
    <rect id="Rectangle_78" data-name="Rectangle 78" width="9.924" height="7.929" transform="translate(200.844 283.466)" fill="#00c39e"/>
    <rect id="Rectangle_79" data-name="Rectangle 79" width="9.919" height="40.488" transform="translate(263.696 250.907)" fill="#00c39e"/>
    <rect id="Rectangle_80" data-name="Rectangle 80" width="9.919" height="27.792" transform="translate(251.13 263.603)" fill="#00c39e"/>
    <rect id="Rectangle_81" data-name="Rectangle 81" width="9.928" height="20.615" transform="translate(238.555 270.78)" fill="#00c39e"/>
    <rect id="Rectangle_82" data-name="Rectangle 82" width="9.918" height="16.11" transform="translate(225.99 275.285)" fill="#00c39e"/>
    <rect id="Rectangle_83" data-name="Rectangle 83" width="9.924" height="10.494" transform="translate(213.414 280.901)" fill="#00c39e"/>
    <path id="Path_15316" data-name="Path 15316" d="M149.014,327.179H134.919v9.094h15.743v7.1H126.281V305.071h23.586v7.1H134.919v7.956h14.095v7.047" transform="translate(0 -5.781)" fill="#0f0e0b"/>
    <path id="Path_15317" data-name="Path 15317" d="M176.427,343.378l-3.467-6.934c-1.421-2.671-2.33-4.66-3.41-6.877h-.113c-.8,2.217-1.763,4.205-3.013,6.877l-3.126,6.934H153.41L164.492,324l-10.685-18.926h9.946l3.354,6.991c1.137,2.33,1.989,4.205,2.9,6.365h.114c.909-2.444,1.647-4.149,2.613-6.365l3.24-6.991h9.888l-10.8,18.7,11.367,19.608h-10" transform="translate(-2.52 -5.781)" fill="#0f0e0b"/>
    <path id="Path_15318" data-name="Path 15318" d="M191.816,305.554a70.926,70.926,0,0,1,11.707-.8c5.343,0,9.207,1.023,11.764,3.126a10.96,10.96,0,0,1,4.036,8.81c0,3.807-1.194,6.99-3.467,9.092-2.955,2.729-7.388,4.036-12.5,4.036a14.858,14.858,0,0,1-2.955-.228v13.755h-8.581V305.554m8.581,17.391a13.178,13.178,0,0,0,2.9.228c4.6,0,7.445-2.33,7.445-6.195,0-3.524-2.387-5.627-6.763-5.627a15.7,15.7,0,0,0-3.581.284Z" transform="translate(-6.087 -5.752)" fill="#0f0e0b"/>
    <path id="Path_15319" data-name="Path 15319" d="M233.665,333.544l-2.671,9.833h-8.98l11.708-38.307h11.31l11.935,38.307h-9.321l-2.955-9.833H233.665m9.719-6.479L241,318.939c-.625-2.273-1.307-5.172-1.875-7.388h-.171c-.512,2.273-1.137,5.172-1.705,7.388l-2.33,8.127Z" transform="translate(-8.892 -5.781)" fill="#0f0e0b"/>
    <path id="Path_15320" data-name="Path 15320" d="M263.053,343.378V305.071h10.116l7.956,14.039a121.146,121.146,0,0,1,6.252,13.129h.113a158.028,158.028,0,0,1-.682-16.028V305.071h7.957v38.307h-9.094L277.488,328.6a135.845,135.845,0,0,1-6.65-13.527h-.226c.283,5.115.4,10.514.4,16.767v11.537h-7.955" transform="translate(-12.704 -5.781)" fill="#0f0e0b"/>
    <path id="Path_15321" data-name="Path 15321" d="M300.518,338.717,318.762,312.4v-.171h-16.6v-7.162h27.792v5l-17.847,25.916v.227h18.13v7.162H300.518v-4.661" transform="translate(-16.184 -5.781)" fill="#0f0e0b"/>
    <path id="Path_15322" data-name="Path 15322" d="M352.241,343.938c-11.309,0-18.015-8.581-18.015-19.493,0-11.48,7.388-20.063,18.64-20.063,11.765,0,18.187,8.81,18.187,19.381,0,12.617-7.558,20.175-18.756,20.175h-.056m.4-6.876c5.855,0,9.207-5.513,9.207-13.014,0-6.878-3.239-12.789-9.207-12.789s-9.321,5.8-9.321,12.959c0,7.217,3.467,12.844,9.263,12.844Z" transform="translate(-19.315 -5.717)" fill="#0f0e0b"/>
    <path id="Path_15323" data-name="Path 15323" d="M158.237,364.535h-5.518v6.029h6.172v.817h-7.133V357.606h6.806v.817h-5.845v5.293h5.518v.818" transform="translate(-2.366 -10.661)" fill="#0f0e0b"/>
    <path id="Path_15324" data-name="Path 15324" d="M168.749,371.381l-2.085-3.393c-.858-1.288-1.349-2.065-1.8-2.862H164.8c-.429.8-.879,1.554-1.737,2.882l-1.962,3.373h-1.145l4.373-6.99-4.189-6.784h1.124l2.207,3.678c.572.92,1,1.615,1.431,2.35h.041c.429-.777.859-1.431,1.451-2.35l2.31-3.678h1.144l-4.414,6.7,4.435,7.072h-1.124" transform="translate(-3.128 -10.66)" fill="#0f0e0b"/>
    <path id="Path_15325" data-name="Path 15325" d="M172.31,357.759a14.783,14.783,0,0,1,2.943-.266,5.041,5.041,0,0,1,3.638,1.165,3.626,3.626,0,0,1,1.062,2.7,3.875,3.875,0,0,1-.96,2.739,5.267,5.267,0,0,1-4.047,1.553,6.163,6.163,0,0,1-1.675-.163v5.886h-.961V357.759m.961,6.867a6.378,6.378,0,0,0,1.757.2c2.453,0,3.944-1.206,3.944-3.393,0-2.165-1.573-3.127-3.76-3.127a9.666,9.666,0,0,0-1.941.163Z" transform="translate(-4.275 -10.65)" fill="#0f0e0b"/>
    <path id="Path_15326" data-name="Path 15326" d="M184.022,366.557l-1.7,4.823h-1l4.986-13.775h.94l4.966,13.775h-1l-1.737-4.823h-5.456m5.15-.818-1.675-4.6c-.327-.961-.512-1.655-.716-2.431h-.041c-.2.8-.429,1.511-.716,2.39l-1.7,4.639Z" transform="translate(-5.113 -10.66)" fill="#0f0e0b"/>
    <path id="Path_15327" data-name="Path 15327" d="M194.551,371.381V357.606h.92l5.375,8.133a49.368,49.368,0,0,1,2.575,4.333l.041-.021c-.143-1.86-.163-3.433-.163-5.6v-6.846h.961v13.775h-.92l-5.252-8.012c-1.022-1.594-1.962-3.045-2.677-4.455l-.041.02c.1,1.7.122,3.189.122,5.477v6.969h-.94" transform="translate(-6.341 -10.66)" fill="#0f0e0b"/>
    <path id="Path_15328" data-name="Path 15328" d="M207.8,357.779a22.686,22.686,0,0,1,3.516-.286c2.514,0,4.413.675,5.559,1.88a6.517,6.517,0,0,1,1.716,4.761,7.591,7.591,0,0,1-1.8,5.232c-1.226,1.328-3.29,2.1-5.947,2.1a29.564,29.564,0,0,1-3.045-.122v-13.57m.961,12.774a17.562,17.562,0,0,0,2.228.1c4.414,0,6.6-2.473,6.6-6.458.021-3.5-1.921-5.886-6.335-5.886a14.692,14.692,0,0,0-2.494.2Z" transform="translate(-7.572 -10.65)" fill="#0f0e0b"/>
    <path id="Path_15329" data-name="Path 15329" d="M227.947,371.381v-5.968l-4.394-7.807h1.1l2.269,4.107c.571,1.083,1.083,1.962,1.553,2.964h.041c.429-.941.981-1.9,1.594-2.984l2.35-4.087h1.1l-4.66,7.827v5.948h-.961" transform="translate(-9.035 -10.66)" fill="#0f0e0b"/>
    <path id="Path_15330" data-name="Path 15330" d="M246.44,364.326c0,4.865-2.964,7.255-6.152,7.255-3.393,0-6.009-2.677-6.009-6.969,0-4.516,2.719-7.255,6.172-7.255,3.475,0,5.989,2.7,5.989,6.968m-11.159.246c0,3.106,1.8,6.192,5.069,6.192s5.089-2.963,5.089-6.376c0-2.9-1.595-6.213-5.048-6.213C236.9,358.175,235.28,361.364,235.28,364.572Z" transform="translate(-10.031 -10.637)" fill="#0f0e0b"/>
    <path id="Path_15331" data-name="Path 15331" d="M250.226,357.606v8.317c0,3.5,1.635,4.844,3.677,4.844,2.27,0,3.843-1.471,3.843-4.844v-8.317h.981v8.216c0,4.23-2.29,5.783-4.885,5.783-2.411,0-4.577-1.41-4.577-5.62v-8.379h.961" transform="translate(-11.423 -10.66)" fill="#0f0e0b"/>
    <path id="Path_15332" data-name="Path 15332" d="M262.245,357.779a15.406,15.406,0,0,1,2.964-.286,5.06,5.06,0,0,1,3.719,1.145,3.454,3.454,0,0,1,.961,2.452,3.658,3.658,0,0,1-2.7,3.6v.041c1.1.347,1.8,1.389,2.125,2.922a18.4,18.4,0,0,0,1.022,3.72h-1.022a20.666,20.666,0,0,1-.879-3.352c-.409-1.982-1.266-2.882-3.086-2.964h-2.145v6.315h-.961V357.779m.961,6.479h2.186c2.126,0,3.516-1.185,3.516-3,0-2.105-1.554-2.964-3.72-2.964a9.291,9.291,0,0,0-1.982.183Z" transform="translate(-12.629 -10.65)" fill="#0f0e0b"/>
    <path id="Path_15333" data-name="Path 15333" d="M276.307,357.779a12.208,12.208,0,0,1,2.759-.286,4.884,4.884,0,0,1,3.617,1.124,3.106,3.106,0,0,1,.839,2.269,3.376,3.376,0,0,1-2.371,3.086v.041a3.589,3.589,0,0,1,2.9,3.515,3.637,3.637,0,0,1-1.021,2.636c-.9.941-2.392,1.308-4.334,1.308a21.145,21.145,0,0,1-2.389-.122v-13.57m.96,5.865h2.024c1.981,0,3.228-1.165,3.228-2.7,0-1.941-1.451-2.636-3.494-2.636a7.4,7.4,0,0,0-1.758.143Zm0,6.909a9.58,9.58,0,0,0,1.7.1c2.105,0,4.087-.757,4.087-3.107,0-2.166-1.86-3.106-4.047-3.106h-1.737Z" transform="translate(-13.935 -10.65)" fill="#0f0e0b"/>
    <path id="Path_15334" data-name="Path 15334" d="M287.52,357.606v8.317c0,3.5,1.636,4.844,3.679,4.844,2.268,0,3.842-1.471,3.842-4.844v-8.317h.981v8.216c0,4.23-2.288,5.783-4.884,5.783-2.412,0-4.577-1.41-4.577-5.62v-8.379h.96" transform="translate(-14.887 -10.66)" fill="#0f0e0b"/>
    <path id="Path_15335" data-name="Path 15335" d="M299.006,369.825a5.467,5.467,0,0,0,3.024.92c2.045,0,3.311-1.166,3.311-2.861,0-1.554-.8-2.453-2.779-3.229-2.228-.776-3.556-1.921-3.556-3.8,0-2.023,1.675-3.494,4.006-3.494a5.314,5.314,0,0,1,2.739.654l-.368.817a4.4,4.4,0,0,0-2.432-.654c-2.228,0-2.984,1.431-2.984,2.514,0,1.533.878,2.31,2.861,3.086,2.269.92,3.474,1.941,3.474,4.006,0,2-1.431,3.8-4.373,3.8a6.193,6.193,0,0,1-3.291-.94l.368-.817" transform="translate(-16.009 -10.637)" fill="#0f0e0b"/>
    <rect id="Rectangle_84" data-name="Rectangle 84" width="0.961" height="13.775" transform="translate(291.909 346.945)" fill="#0f0e0b"/>
    <path id="Path_15336" data-name="Path 15336" d="M312.5,371.381V357.606h.919l5.376,8.133a49.561,49.561,0,0,1,2.574,4.333l.041-.021c-.143-1.86-.163-3.433-.163-5.6v-6.846h.96v13.775h-.919l-5.252-8.012c-1.022-1.594-1.962-3.045-2.678-4.455l-.041.02c.1,1.7.122,3.189.122,5.477v6.969H312.5" transform="translate(-17.296 -10.66)" fill="#0f0e0b"/>
    <path id="Path_15337" data-name="Path 15337" d="M332.225,364.535h-5.517v6.029h6.171v.817h-7.132V357.606h6.805v.817h-5.845v5.293h5.517v.818" transform="translate(-18.527 -10.661)" fill="#0f0e0b"/>
    <path id="Path_15338" data-name="Path 15338" d="M334.588,369.825a5.467,5.467,0,0,0,3.024.92c2.044,0,3.311-1.166,3.311-2.861,0-1.554-.8-2.453-2.78-3.229-2.227-.776-3.555-1.921-3.555-3.8,0-2.023,1.675-3.494,4-3.494a5.316,5.316,0,0,1,2.74.654l-.368.817a4.4,4.4,0,0,0-2.432-.654c-2.227,0-2.983,1.431-2.983,2.514,0,1.533.878,2.31,2.861,3.086,2.268.92,3.473,1.941,3.473,4.006,0,2-1.43,3.8-4.373,3.8a6.19,6.19,0,0,1-3.29-.94l.368-.817" transform="translate(-19.314 -10.637)" fill="#0f0e0b"/>
    <path id="Path_15339" data-name="Path 15339" d="M343.916,369.825a5.474,5.474,0,0,0,3.024.92c2.045,0,3.311-1.166,3.311-2.861,0-1.554-.8-2.453-2.779-3.229-2.227-.776-3.556-1.921-3.556-3.8,0-2.023,1.676-3.494,4.006-3.494a5.314,5.314,0,0,1,2.739.654l-.368.817a4.394,4.394,0,0,0-2.431-.654c-2.228,0-2.984,1.431-2.984,2.514,0,1.533.879,2.31,2.862,3.086,2.268.92,3.473,1.941,3.473,4.006,0,2-1.431,3.8-4.373,3.8a6.19,6.19,0,0,1-3.29-.94l.367-.817" transform="translate(-20.181 -10.637)" fill="#0f0e0b"/>
  </g>
</svg>
