<svg xmlns="http://www.w3.org/2000/svg" width="99.594" height="52.174" viewBox="0 0 99.594 52.174">
  <g id="Group_46" data-name="Group 46" transform="translate(-126.281 -242.833)">
    <path id="Path_15315" data-name="Path 15315" d="M220.277,245.845l-1.762,1.365-10.308,7.974,1.37,1.768,10.3-7.976,2.263,2.925,1.368,1.764,1.767-1.365,5.119-3.965,1.429,1.843,1.931-3.675,1.926-3.669-4.036.947-4.04.945,1.423,1.841-5.119,3.968-2.264-2.923-1.369-1.766" transform="translate(-49.097 0)" fill="#fff" fill-rule="evenodd"/>
    <rect id="Rectangle_78" data-name="Rectangle 78" width="4.384" height="3.503" transform="translate(159.219 260.782)" fill="#fff"/>
    <rect id="Rectangle_79" data-name="Rectangle 79" width="4.382" height="17.885" transform="translate(186.983 246.4)" fill="#fff"/>
    <rect id="Rectangle_80" data-name="Rectangle 80" width="4.382" height="12.277" transform="translate(181.432 252.008)" fill="#fff"/>
    <rect id="Rectangle_81" data-name="Rectangle 81" width="4.386" height="9.107" transform="translate(175.877 255.178)" fill="#fff"/>
    <rect id="Rectangle_82" data-name="Rectangle 82" width="4.381" height="7.117" transform="translate(170.327 257.168)" fill="#fff"/>
    <rect id="Rectangle_83" data-name="Rectangle 83" width="4.384" height="4.636" transform="translate(164.771 259.649)" fill="#fff"/>
    <path id="Path_15316" data-name="Path 15316" d="M136.323,314.837H130.1v4.017h6.954v3.138h-10.77V305.071H136.7v3.138h-6.6v3.515h6.226v3.113" transform="translate(0 -37.299)" fill="#fff"/>
    <path id="Path_15317" data-name="Path 15317" d="M163.578,321.993l-1.532-3.063c-.628-1.18-1.029-2.058-1.506-3.038h-.05c-.352.979-.779,1.858-1.331,3.038l-1.381,3.063H153.41l4.9-8.561-4.72-8.36h4.393l1.481,3.088c.5,1.029.879,1.858,1.28,2.812h.05c.4-1.079.728-1.833,1.154-2.812l1.431-3.088h4.368l-4.77,8.26L168,321.993h-4.419" transform="translate(-16.258 -37.299)" fill="#fff"/>
    <path id="Path_15318" data-name="Path 15318" d="M191.816,305.109a31.332,31.332,0,0,1,5.172-.351c2.36,0,4.067.452,5.2,1.381a4.841,4.841,0,0,1,1.783,3.892,5.313,5.313,0,0,1-1.531,4.016,8.032,8.032,0,0,1-5.523,1.783,6.565,6.565,0,0,1-1.305-.1V321.8h-3.791v-16.7m3.791,7.682a5.82,5.82,0,0,0,1.281.1c2.033,0,3.289-1.029,3.289-2.736,0-1.557-1.054-2.486-2.987-2.486a6.935,6.935,0,0,0-1.582.125Z" transform="translate(-39.274 -37.111)" fill="#fff"/>
    <path id="Path_15319" data-name="Path 15319" d="M227.161,317.649l-1.18,4.344h-3.967l5.172-16.922h5l5.272,16.922h-4.117l-1.306-4.344h-4.871m4.293-2.862L230.4,311.2c-.276-1-.577-2.285-.828-3.264H229.5c-.226,1-.5,2.285-.753,3.264l-1.029,3.59Z" transform="translate(-57.372 -37.299)" fill="#fff"/>
    <path id="Path_15320" data-name="Path 15320" d="M263.053,321.993V305.071h4.469l3.515,6.2a53.516,53.516,0,0,1,2.762,5.8h.05a69.791,69.791,0,0,1-.3-7.08v-4.921h3.515v16.922h-4.017l-3.615-6.528a60,60,0,0,1-2.938-5.975h-.1c.125,2.26.175,4.645.175,7.407v5.1h-3.514" transform="translate(-81.966 -37.299)" fill="#fff"/>
    <path id="Path_15321" data-name="Path 15321" d="M300.518,319.934l8.059-11.624v-.075h-7.331v-3.164h12.277v2.209l-7.884,11.448v.1h8.009v3.164h-13.13v-2.059" transform="translate(-104.419 -37.299)" fill="#fff"/>
    <path id="Path_15322" data-name="Path 15322" d="M342.184,321.855c-5,0-7.958-3.791-7.958-8.611,0-5.071,3.263-8.862,8.234-8.862,5.2,0,8.034,3.892,8.034,8.561,0,5.573-3.339,8.912-8.285,8.912h-.025m.176-3.037c2.586,0,4.067-2.435,4.067-5.749,0-3.038-1.431-5.649-4.067-5.649s-4.117,2.561-4.117,5.725c0,3.188,1.532,5.674,4.092,5.674Z" transform="translate(-124.619 -36.886)" fill="#fff"/>
    <path id="Path_15323" data-name="Path 15323" d="M154.62,360.667h-2.438v2.663h2.726v.361h-3.151v-6.085h3.007v.361h-2.582v2.338h2.438v.361" transform="translate(-15.268 -68.782)" fill="#fff"/>
    <path id="Path_15324" data-name="Path 15324" d="M163.843,363.691l-.921-1.5c-.379-.569-.6-.912-.795-1.264H162.1c-.19.352-.388.686-.767,1.273l-.867,1.49h-.506l1.932-3.088-1.851-3h.5l.975,1.625c.253.406.442.713.632,1.038h.018c.19-.343.379-.632.641-1.038l1.02-1.625h.505l-1.95,2.961,1.959,3.124h-.5" transform="translate(-20.184 -68.782)" fill="#fff"/>
    <path id="Path_15325" data-name="Path 15325" d="M172.31,357.61a6.527,6.527,0,0,1,1.3-.117,2.227,2.227,0,0,1,1.607.515,1.6,1.6,0,0,1,.469,1.192,1.712,1.712,0,0,1-.424,1.21,2.327,2.327,0,0,1-1.788.686,2.724,2.724,0,0,1-.74-.072v2.6h-.424V357.61m.424,3.033a2.817,2.817,0,0,0,.776.09c1.083,0,1.742-.533,1.742-1.5s-.695-1.381-1.661-1.381a4.273,4.273,0,0,0-.857.072Z" transform="translate(-27.585 -68.715)" fill="#fff"/>
    <path id="Path_15326" data-name="Path 15326" d="M182.516,361.56l-.749,2.131h-.442l2.2-6.085h.415l2.194,6.085h-.442l-.767-2.131h-2.41m2.275-.361-.74-2.031c-.145-.424-.226-.731-.316-1.074h-.018c-.09.352-.19.668-.316,1.056l-.749,2.049Z" transform="translate(-32.987 -68.782)" fill="#fff"/>
    <path id="Path_15327" data-name="Path 15327" d="M194.551,363.691v-6.085h.406l2.374,3.593a21.8,21.8,0,0,1,1.138,1.914l.018-.009c-.063-.821-.072-1.516-.072-2.474v-3.024h.424v6.085h-.406l-2.32-3.539c-.452-.7-.867-1.345-1.183-1.968l-.018.009c.045.749.054,1.409.054,2.419v3.079h-.415" transform="translate(-40.914 -68.782)" fill="#fff"/>
    <path id="Path_15328" data-name="Path 15328" d="M207.8,357.619a10.016,10.016,0,0,1,1.553-.126,3.3,3.3,0,0,1,2.456.831,2.879,2.879,0,0,1,.758,2.1,3.353,3.353,0,0,1-.795,2.311,3.5,3.5,0,0,1-2.627.93,13.056,13.056,0,0,1-1.345-.054v-5.995m.424,5.643a7.761,7.761,0,0,0,.984.045,2.606,2.606,0,0,0,2.916-2.853c.009-1.544-.849-2.6-2.8-2.6a6.5,6.5,0,0,0-1.1.09Z" transform="translate(-48.854 -68.715)" fill="#fff"/>
    <path id="Path_15329" data-name="Path 15329" d="M225.494,363.691v-2.636l-1.941-3.449h.488l1,1.814c.252.478.478.867.686,1.309h.018c.19-.416.433-.84.7-1.318l1.038-1.805h.488l-2.058,3.457v2.627h-.424" transform="translate(-58.294 -68.782)" fill="#fff"/>
    <path id="Path_15330" data-name="Path 15330" d="M239.651,360.436c0,2.149-1.309,3.2-2.718,3.2-1.5,0-2.654-1.182-2.654-3.078,0-2,1.2-3.2,2.726-3.2s2.645,1.192,2.645,3.078m-4.93.109a2.467,2.467,0,0,0,2.239,2.735c1.444,0,2.248-1.309,2.248-2.817,0-1.282-.7-2.744-2.23-2.744C235.435,357.719,234.721,359.128,234.721,360.545Z" transform="translate(-64.722 -68.634)" fill="#fff"/>
    <path id="Path_15331" data-name="Path 15331" d="M249.689,357.606v3.674c0,1.544.722,2.14,1.624,2.14,1,0,1.7-.65,1.7-2.14v-3.674h.433v3.629c0,1.869-1.011,2.555-2.158,2.555-1.065,0-2.022-.623-2.022-2.482v-3.7h.424" transform="translate(-73.703 -68.782)" fill="#fff"/>
    <path id="Path_15332" data-name="Path 15332" d="M262.245,357.619a6.8,6.8,0,0,1,1.309-.126A2.235,2.235,0,0,1,265.2,358a1.526,1.526,0,0,1,.424,1.083,1.616,1.616,0,0,1-1.192,1.589v.018a1.545,1.545,0,0,1,.939,1.291,8.129,8.129,0,0,0,.452,1.643h-.452a9.13,9.13,0,0,1-.388-1.481c-.181-.876-.559-1.273-1.363-1.309h-.948v2.79h-.424v-6m.424,2.862h.966c.939,0,1.553-.523,1.553-1.327,0-.93-.686-1.309-1.643-1.309a4.108,4.108,0,0,0-.876.081Z" transform="translate(-81.482 -68.715)" fill="#fff"/>
    <path id="Path_15333" data-name="Path 15333" d="M276.307,357.619a5.39,5.39,0,0,1,1.219-.126,2.157,2.157,0,0,1,1.6.5,1.372,1.372,0,0,1,.371,1,1.491,1.491,0,0,1-1.047,1.363v.018a1.585,1.585,0,0,1,1.282,1.553,1.607,1.607,0,0,1-.451,1.164,2.577,2.577,0,0,1-1.915.578,9.347,9.347,0,0,1-1.055-.054v-5.995m.424,2.591h.894a1.261,1.261,0,0,0,1.426-1.192c0-.857-.641-1.164-1.544-1.164a3.269,3.269,0,0,0-.777.063Zm0,3.052a4.233,4.233,0,0,0,.749.045c.93,0,1.806-.334,1.806-1.372,0-.957-.822-1.372-1.788-1.372h-.767Z" transform="translate(-89.909 -68.715)" fill="#fff"/>
    <path id="Path_15334" data-name="Path 15334" d="M286.984,357.606v3.674c0,1.544.722,2.14,1.625,2.14,1,0,1.7-.65,1.7-2.14v-3.674h.433v3.629c0,1.869-1.011,2.555-2.157,2.555-1.066,0-2.022-.623-2.022-2.482v-3.7h.424" transform="translate(-96.054 -68.782)" fill="#fff"/>
    <path id="Path_15335" data-name="Path 15335" d="M298.8,362.865a2.415,2.415,0,0,0,1.336.406,1.289,1.289,0,0,0,1.463-1.264c0-.686-.352-1.084-1.228-1.427-.984-.343-1.571-.849-1.571-1.679a1.611,1.611,0,0,1,1.77-1.544,2.347,2.347,0,0,1,1.21.289l-.163.361a1.943,1.943,0,0,0-1.074-.289,1.153,1.153,0,0,0-1.318,1.11c0,.677.388,1.02,1.264,1.363,1,.406,1.535.858,1.535,1.77a1.708,1.708,0,0,1-1.932,1.679,2.736,2.736,0,0,1-1.454-.415l.163-.361" transform="translate(-103.292 -68.634)" fill="#fff"/>
    <rect id="Rectangle_84" data-name="Rectangle 84" width="0.424" height="6.085" transform="translate(199.445 288.824)" fill="#fff"/>
    <path id="Path_15336" data-name="Path 15336" d="M312.5,363.691v-6.085h.406l2.375,3.593a21.869,21.869,0,0,1,1.137,1.914l.018-.009c-.063-.821-.072-1.516-.072-2.474v-3.024h.424v6.085h-.406l-2.32-3.539c-.452-.7-.867-1.345-1.183-1.968l-.018.009c.045.749.054,1.409.054,2.419v3.079H312.5" transform="translate(-111.597 -68.782)" fill="#fff"/>
    <path id="Path_15337" data-name="Path 15337" d="M328.608,360.667h-2.437v2.663H328.9v.361h-3.15v-6.085h3.006v.361h-2.582v2.338h2.437v.361" transform="translate(-119.538 -68.782)" fill="#fff"/>
    <path id="Path_15338" data-name="Path 15338" d="M334.383,362.865a2.415,2.415,0,0,0,1.336.406,1.289,1.289,0,0,0,1.463-1.264c0-.686-.353-1.084-1.228-1.427-.984-.343-1.57-.849-1.57-1.679a1.611,1.611,0,0,1,1.769-1.544,2.348,2.348,0,0,1,1.21.289l-.163.361a1.944,1.944,0,0,0-1.074-.289,1.153,1.153,0,0,0-1.318,1.11c0,.677.388,1.02,1.264,1.363,1,.406,1.534.858,1.534,1.77a1.708,1.708,0,0,1-1.932,1.679,2.734,2.734,0,0,1-1.453-.415l.163-.361" transform="translate(-124.616 -68.634)" fill="#fff"/>
    <path id="Path_15339" data-name="Path 15339" d="M343.711,362.865a2.418,2.418,0,0,0,1.336.406,1.289,1.289,0,0,0,1.463-1.264c0-.686-.352-1.084-1.228-1.427-.984-.343-1.571-.849-1.571-1.679a1.611,1.611,0,0,1,1.77-1.544,2.347,2.347,0,0,1,1.21.289l-.163.361a1.941,1.941,0,0,0-1.074-.289,1.153,1.153,0,0,0-1.318,1.11c0,.677.388,1.02,1.264,1.363,1,.406,1.534.858,1.534,1.77A1.708,1.708,0,0,1,345,363.641a2.734,2.734,0,0,1-1.453-.415l.162-.361" transform="translate(-130.207 -68.634)" fill="#fff"/>
  </g>
</svg>
